# xmcd
# 
# Track frame offsets:
#     150
#     17743
#     33492
#     52094
#     70735
#     95503
#     123206
#     141660
#     161251
#     187949
#     207592
#     226697
#     241268
#     260041
#     280660
#     297729
#     314593
#     338949
#     361039
#     375775
# 
# Disc length: 5232
# 
# Revision: 1
# Processed by: cddbd v1.5.2PL0 Copyright (c) Steve Scherf et al.
# Submitted via: fre:ac v1.0.17
# 
DISCID=29146e14
DTITLE=Tonke Dragt - Der Wilde Wald - CD 3
DYEAR=2005
DGENRE=Hörbuch
TTITLE0=01 Piak
TTITLE1=02 Piak
TTITLE2=03 Leute Von Mistrinaut
TTITLE3=04 Leute Von Mistrinaut
TTITLE4=05 Leute Von Mistrinaut
TTITLE5=06 Leute Von Mistrinaut
TTITLE6=07 Leute Von Mistrinaut
TTITLE7=08 Leute Von Mistrinaut
TTITLE8=09 Leute Von Mistrinaut
TTITLE9=10 Der Schwarze Ritter Mit Dem Roten Schild
TTITLE10=11 Der Schwarze Ritter Mit Dem Roten Schild
TTITLE11=12 Der Schwarze Ritter Mit Dem Roten Schild
TTITLE12=13 Der Schwarze Ritter Mit Dem Roten Schild
TTITLE13=14 Der Schwarze Ritter Mit Dem Roten Schild
TTITLE14=15 Die Tarenburg
TTITLE15=16 Die Tarenburg
TTITLE16=17 Die Tarenburg
TTITLE17=18 Die Tarenburg
TTITLE18=19 Die Tarenburg
TTITLE19=20 Die Tarenburg
EXTD=Gelesen Von Konstantin Graudus
EXTT0=
EXTT1=
EXTT2=
EXTT3=
EXTT4=
EXTT5=
EXTT6=
EXTT7=
EXTT8=
EXTT9=
EXTT10=
EXTT11=
EXTT12=
EXTT13=
EXTT14=
EXTT15=
EXTT16=
EXTT17=
EXTT18=
EXTT19=
PLAYORDER=
